# xmcd CD database file
# Copyright (C) 1993-1998 Ti Kan
#
# Track frame offsets:
#  150
#  11165
#  20402
#  34557
#  45195
#  59332
#  69230
#  84430
#  98252
#  111995
#  123762
#  136807
#  151367
#  166205
#  177705
#  188885
#  198935
#  212002
#  223337
#  234250
#
# Disc length: 3280 seconds
#
# Revision: 1
# Processed by: cddbd v1.4b41PL1 Copyright (c) Steve Scherf et al.
# Submitted via: CDWizzard Release:4.35
#
DISCID=030cce14
DTITLE=Frankie Laine - The Best Of Frankie Laine
DYEAR=1900
DGENRE=
TTITLE0=High Noon (Do not forsake me)
TTITLE1=Rawhide
TTITLE2=Riders In The Sky
TTITLE3=The Hanging Tree
TTITLE4=Careless Love
TTITLE5=Gunfight At OK Corral
TTITLE6=On The Trail
TTITLE7=Beyond The Blue Horizon
TTITLE8=Serenade
TTITLE9=Mule Train
TTITLE10=The Cry Of The Wild Goose
TTITLE11=Jezebel
TTITLE12=Jealousy
TTITLE13=Along The Navajo Trail
TTITLE14=The 3.10 To Yuma
TTITLE15=I Believe
TTITLE16=Cool Water
TTITLE17=Ace In The Hole
TTITLE18=16 Tons
TTITLE19=Marie
EXTD=
EXTT0=
EXTT1=
EXTT2=
EXTT3=
EXTT4=
EXTT5=
EXTT6=
EXTT7=
EXTT8=
EXTT9=
EXTT10=
EXTT11=
EXTT12=
EXTT13=
EXTT14=
EXTT15=
EXTT16=
EXTT17=
EXTT18=
EXTT19=
PLAYORDER=
